<?xml version="1.0" standalone="no"?><!DOCTYPE svg PUBLIC "-//W3C//DTD SVG 1.1//EN" "http://www.w3.org/Graphics/SVG/1.1/DTD/svg11.dtd"><svg t="1640598956977" class="icon" viewBox="0 0 1024 1024" version="1.1" xmlns="http://www.w3.org/2000/svg" p-id="7407" xmlns:xlink="http://www.w3.org/1999/xlink" width="200" height="200"><defs><style type="text/css"></style></defs><path d="M224 768A138.666667 138.666667 0 0 1 85.333333 629.333333v-362.666666A138.666667 138.666667 0 0 1 224 128h576A138.666667 138.666667 0 0 1 938.666667 266.666667v362.666666A138.666667 138.666667 0 0 1 800 768h-244.821333L341.333333 928a53.333333 53.333333 0 0 1-85.290666-42.666667V768h-32z m309.930667-64h266.069333a74.666667 74.666667 0 0 0 74.666667-74.666667v-362.666666a74.666667 74.666667 0 0 0-74.666667-74.666667H224A74.666667 74.666667 0 0 0 149.333333 266.666667v362.666666c0 41.216 33.450667 74.666667 74.666667 74.666667h95.957333v160l213.973334-160z" p-id="7408" fill="#ffffff"></path></svg>