<?xml version="1.0" standalone="no"?><!DOCTYPE svg PUBLIC "-//W3C//DTD SVG 1.1//EN" "http://www.w3.org/Graphics/SVG/1.1/DTD/svg11.dtd"><svg t="1640598966845" class="icon" viewBox="0 0 1024 1024" version="1.1" xmlns="http://www.w3.org/2000/svg" p-id="7603" xmlns:xlink="http://www.w3.org/1999/xlink" width="200" height="200"><defs><style type="text/css"></style></defs><path d="M491.096924 886.876969c-15.940041-10.769274-390.797567-266.445398-426.234661-499.098155-9.452279-62.082964 4.986571-117.613698 42.916439-165.051103 47.098691-58.910715 104.84693-91.912339 171.640172-98.084923a247.850901 247.850901 0 0 1 22.804379-1.044795c89.331561 0 169.130002 46.705742 209.770607 75.452459 40.631396-28.739555 120.449279-75.43097 209.994712-75.43097 7.581676 0 15.181771 0.343831 22.588461 1.022283 66.790172 6.173606 124.544551 39.174208 171.664731 98.085946 37.915541 47.445592 52.347229 102.976326 42.895973 165.051103-35.44835 232.652757-410.305877 488.328881-426.245918 499.098155l-20.896936 14.126742-20.897959-14.126742z m-188.827623-688.589904c-5.464455 0-10.93505 0.251733-16.258288 0.749061-46.330188 4.361331-85.552491 27.364231-119.904881 70.324671-24.702612 30.902824-33.666774 65.947991-27.405163 107.139136 11.221576 73.785493 68.019163 161.887041 168.8138 261.854846 80.855516 80.190367 168.710446 146.07389 204.480114 171.881673 35.772738-25.810852 123.635855-91.699492 204.484208-171.884742 100.79873-99.970876 157.598364-188.078563 168.81994-261.873266 6.263657-41.187051-2.701528-76.226079-27.405163-107.117647-34.340109-42.959418-73.562413-65.963341-119.906927-70.324671a174.286442 174.286442 0 0 0-16.107863-0.738828c-94.390787 0-181.885514 72.978105-185.564299 76.084863l-24.356735 20.871353-24.357757-20.930705c-0.212848-0.181125-22.992667-19.412119-57.288774-38.312584-31.225165-17.209964-78.787414-37.72316-128.042212-37.72316z" p-id="7604" fill="#ffffff"></path><path d="M511.994883 897.501958l-19.273972-13.028735c-15.899108-10.741645-389.728212-265.61959-424.991344-497.131361-9.328459-61.264319 4.910846-116.024503 42.314735-162.802899 46.575782-58.258868 103.646592-90.909499 169.641655-97.008405 99.609649-9.239432 191.258998 45.768393 232.307903 75.077929 41.047882-29.308513 132.742257-84.204797 232.31916-75.077929 65.995063 6.099928 123.065873 38.749536 169.664167 97.008405 37.381375 46.777373 51.621704 101.538581 42.293246 162.802899-35.274388 231.511771-409.103492 486.389716-425.002601 497.131361l-19.272949 13.028735z m-209.725582-702.114942c-5.494131 0-11.010775 0.246617-16.527418 0.762363-47.170323 4.440126-87.041402 27.806299-121.900328 71.400166-25.238824 31.574113-34.399461 67.340711-28.00789 109.38734 26.550703 174.575014 300.43349 382.406456 376.161218 436.876022 75.727729-54.469566 349.621772-262.301008 376.172476-436.898535 6.390547-42.024116-2.75781-77.790714-28.007891-109.364827-34.847669-43.593867-74.718749-66.960041-121.900328-71.400166-102.547561-9.552563-202.808032 75.166957-203.817012 76.019371l-22.481014 19.262715-22.469757-19.307741c-0.896416-0.76134-90.774423-76.736709-187.222056-76.736708z" p-id="7605" fill="#ffffff"></path></svg>