<?xml version="1.0" standalone="no"?><!DOCTYPE svg PUBLIC "-//W3C//DTD SVG 1.1//EN" "http://www.w3.org/Graphics/SVG/1.1/DTD/svg11.dtd"><svg class="icon" width="200px" height="200.00px" viewBox="0 0 1024 1024" version="1.1" xmlns="http://www.w3.org/2000/svg"><path fill="#58be6b" d="M511.99443479 97.2365913C283.29739131 97.2365913 97.23547826 283.30295652 97.23547826 512c0 228.70372174 186.05968696 414.7634087 414.75784348 414.7634087 228.70372174 0 414.76897391-186.05968696 414.76897391-414.7634087S740.69704348 97.2365913 511.99443479 97.2365913z m157.30309565 102.2820174l9.69460869 4.95304347a352.54984348 352.54984348 0 0 1 138.66295653 137.2772174l4.80834782 8.90100869-153.16591304 153.17704348V199.51972174z m-256.67895652-23.06893914a348.68535652 348.68535652 0 0 1 195.13878261-1.03067826l9.6923826 2.48987826v217.0724174L402.52104348 180.05704348l10.09753044-3.60626087z m167.08340869 403.25787827A95.10177391 95.10177391 0 0 1 512 607.744a95.07283479 95.07283479 0 0 1-67.67304347-28.00973913l-0.03339131-0.0333913c-37.32813913-37.33926957-37.32813913-98.08139131 0.00445217-135.41509566a95.0784 95.0784 0 0 1 67.69530435-28.03756521c25.55993043 0 49.59165217 9.9506087 67.67972173 28.01530435l0.02893914 0.02782608c37.33815652 37.33259131 37.33815652 98.08139131 0 135.41509565zM204.47053913 345.00897391a352.46413913 352.46413913 0 0 1 137.28389565-138.66852173l8.66838261-5.04431305 153.39965218 153.39965217H199.99165217l4.47888696-9.68681739zM354.70246956 824.00834783l-9.69460869-4.47443479a352.4864 352.4864 0 0 1-138.66295653-137.28278261l-5.2813913-8.42796522 153.63339131-153.64452173 0.00556521 303.82970435z m-174.99269565-202.16431305l-3.25453912-10.45147826a348.56069565 348.56069565 0 0 1-1.03624349-195.13878261l2.48987826-9.6923826h217.08354783L179.70977391 621.84403478z m431.68278261 225.70073043a348.78775652 348.78775652 0 0 1-195.13878261 1.04292175l-9.6923826-2.96960001V629.00758261l214.69050434 214.69495652-9.85933913 3.84222608zM819.53391304 678.97878261a352.44076521 352.44076521 0 0 1-137.28946087 138.66852174l-9.0267826 4.67923478-153.0468174-153.04125218H823.48521739l-3.94907826 9.6946087z m25.84375652-61.54017392H629.0253913l214.12507826-214.15513043 4.39429565 9.31728696a348.54956522 348.54956522 0 0 1 1.03624349 195.14323478l-3.20222609 9.69460869z"  /></svg>